<?xml version="1.0" standalone="no"?><!DOCTYPE svg PUBLIC "-//W3C//DTD SVG 1.1//EN" "http://www.w3.org/Graphics/SVG/1.1/DTD/svg11.dtd"><svg t="1572598198828" class="icon" viewBox="0 0 1287 1024" version="1.1" xmlns="http://www.w3.org/2000/svg" p-id="1114" xmlns:xlink="http://www.w3.org/1999/xlink" width="251.3671875" height="200"><defs><style type="text/css"></style></defs><path d="M1219.982278 0.000644H67.258929A66.936476 66.936476 0 0 0 0.000644 67.258929v889.482785a67.258286 67.258286 0 0 0 67.258285 67.258286h1152.723349A67.258286 67.258286 0 0 0 1287.240564 956.741714V67.258929A66.936476 66.936476 0 0 0 1219.982278 0.000644zM424.146197 614.335895a190.189698 190.189698 0 1 1 190.189698-190.189698 190.189698 190.189698 0 0 1-190.189698 190.189698z m599.853803 204.671148H672.905312a58.569416 58.569416 0 1 1 0-116.817023h351.094688a58.569416 58.569416 0 1 1 0 116.817023z m0-233.955856h-175.708249a58.569416 58.569416 0 0 1 0-116.817022h175.708249a58.569416 58.569416 0 1 1 0 116.817022z m0-233.955855h-87.854125a58.569416 58.569416 0 0 1 0-117.138833h87.854125a58.569416 58.569416 0 1 1 0 117.138833z" p-id="1115"></path></svg>