<?xml version="1.0" standalone="no"?><!DOCTYPE svg PUBLIC "-//W3C//DTD SVG 1.1//EN" "http://www.w3.org/Graphics/SVG/1.1/DTD/svg11.dtd"><svg t="1542699403601" class="icon" style="" viewBox="0 0 1206 1024" version="1.1" xmlns="http://www.w3.org/2000/svg" p-id="3055" xmlns:xlink="http://www.w3.org/1999/xlink" width="235.546875" height="200"><defs><style type="text/css"></style></defs><path d="M1194.297109 457.575663L634.726654 18.513011c-16.384542-16.384542-42.951994-16.384542-59.336536 0L15.821168 457.575663c-16.384542 16.384542-16.384542 42.950488 0 59.33503l162.943121 0.411233V978.809574c0 24.957166 20.23326 45.190426 45.190426 45.190426h762.210354c24.957166 0 45.190426-20.23326 45.190426-45.190426V517.321926l162.941614-0.411233c16.384542-16.386049 16.384542-42.950488 0-59.33503z m-456.959567 287.87808c16.628571 0 30.111887 13.481811 30.111888 30.111888s-13.483317 30.111887-30.111888 30.111887h-95.137898v95.134886c0 16.630077-13.483317 30.111887-30.111887 30.111887-16.631583 0-30.111887-13.481811-30.111888-30.111887v-95.134886h-109.198146c-16.628571 0-30.110381-13.481811-30.110382-30.111887s13.481811-30.111887 30.110382-30.111888h109.198146V701.280101h-109.198146c-16.628571 0-30.110381-13.481811-30.110382-30.111887s13.481811-30.111887 30.110382-30.111888h116.827796a30.041089 30.041089 0 0 1-5.266191-7.253063l-110.9907-110.992207c-11.758549-11.760055-11.757043-30.82439 0.003013-42.584445s30.82439-11.758549 42.584445 0l96.153177 96.157696 96.156189-96.156189c11.757043-11.760055 30.82439-11.760055 42.584445 0s11.760055 30.82439 0 42.584445l-110.9907 110.993712a30.14804 30.14804 0 0 1-5.266191 7.250051h102.767549c16.628571 0 30.111887 13.481811 30.111888 30.111888s-13.483317 30.111887-30.111888 30.111887h-95.137898v44.172136h95.134885z" p-id="3056"></path></svg>