<?xml version="1.0" standalone="no"?><!DOCTYPE svg PUBLIC "-//W3C//DTD SVG 1.1//EN" "http://www.w3.org/Graphics/SVG/1.1/DTD/svg11.dtd"><svg t="1523506166293" class="icon" style="" viewBox="0 0 1024 1024" version="1.1" xmlns="http://www.w3.org/2000/svg" p-id="3177" xmlns:xlink="http://www.w3.org/1999/xlink" width="200" height="200"><defs><style type="text/css"></style></defs><path d="M873.6 275.2c-16 0-25.6 12.8-25.6 25.6v550.4c0 28.8-22.4 51.2-51.2 51.2H153.6c-28.8 0-51.2-22.4-51.2-51.2V204.8c0-28.8 22.4-51.2 51.2-51.2h521.6c16 0 25.6-12.8 25.6-25.6s-12.8-25.6-25.6-25.6H153.6C96 102.4 48 150.4 48 204.8v646.4c0 57.6 48 102.4 105.6 102.4h643.2c57.6 0 105.6-44.8 105.6-102.4V300.8c-3.2-16-12.8-25.6-28.8-25.6z" fill="" p-id="3178"></path><path d="M483.2 361.6H204.8c-16 0-25.6 12.8-25.6 25.6s12.8 25.6 25.6 25.6h278.4c16 0 25.6-12.8 25.6-25.6 0-16-12.8-25.6-25.6-25.6zM179.2 566.4c0 12.8 12.8 25.6 25.6 25.6h460.8c16 0 25.6-12.8 25.6-25.6s-12.8-25.6-25.6-25.6H204.8c-12.8 0-25.6 12.8-25.6 25.6zM969.6 57.6c-9.6-9.6-25.6-9.6-38.4 0L604.8 380.8c-9.6 9.6-9.6 25.6 0 35.2s25.6 9.6 38.4 0L969.6 92.8c9.6-9.6 9.6-25.6 0-35.2z" fill="" p-id="3179"></path></svg>