<?xml version="1.0" standalone="no"?><!DOCTYPE svg PUBLIC "-//W3C//DTD SVG 1.1//EN" "http://www.w3.org/Graphics/SVG/1.1/DTD/svg11.dtd"><svg t="1543539728884" class="icon" style="" viewBox="0 0 1024 1024" version="1.1" xmlns="http://www.w3.org/2000/svg" p-id="1722" xmlns:xlink="http://www.w3.org/1999/xlink" width="200" height="200"><defs><style type="text/css"></style></defs><path d="M48.484848 512.646465C48.484848 768.646465 256 976.161616 512 976.161616s463.515152-207.515152 463.515152-463.515152S768 49.131313 512 49.131313 48.484848 256.646465 48.484848 512.646465zM100.20202 512.646465C100.20202 285.220202 284.573737 100.848485 512 100.848485s411.79798 184.371717 411.79798 411.79798C923.79798 740.085657 739.426263 924.444444 512 924.444444S100.20202 740.085657 100.20202 512.646465z" p-id="1723"></path><path d="M511.63798 240.019394c-32.142222 0-58.181818 26.039596-58.181818 58.181818l0 289.616162-35.11596-35.11596c-22.742626-22.742626-59.410101-22.936566-81.894141-0.439596-22.49697 22.48404-22.30303 59.151515 0.439596 81.894141l133.572525 133.572525 0.452525 0.452525c11.209697 11.209697 25.936162 16.782222 40.701414 16.743434 14.791111 0.051717 29.530505-5.533737 40.753131-16.743434l0.439596-0.452525 133.572525-133.572525c22.742626-22.742626 22.936566-59.410101 0.452525-81.894141-22.49697-22.49697-59.164444-22.30303-81.907071 0.439596l-35.10303 35.11596 0-289.616162C569.819798 266.05899 543.767273 240.019394 511.63798 240.019394z" p-id="1724"></path></svg>